<mxfile host="app.diagrams.net" agent="Mozilla/5.0 (Windows NT 10.0; Win64; x64) AppleWebKit/537.36 (KHTML, like Gecko) Chrome/127.0.0.0 Safari/537.36" version="24.7.7">
  <diagram name="Page-1" id="86NNyKqln8vys6q8v_8H">
    <mxGraphModel dx="1750" dy="1012" grid="1" gridSize="10" guides="1" tooltips="1" connect="1" arrows="1" fold="1" page="1" pageScale="1" pageWidth="827" pageHeight="1169" math="0" shadow="0">
      <root>
        <mxCell id="0" />
        <mxCell id="1" parent="0" />
        <mxCell id="2eFBXOdf6HQDlg9zkL27-38" value="Start" style="whiteSpace=wrap;strokeWidth=2;" parent="1" vertex="1">
          <mxGeometry x="234" y="70" width="50" height="33" as="geometry" />
        </mxCell>
        <mxCell id="2eFBXOdf6HQDlg9zkL27-39" value="UserAccess" style="whiteSpace=wrap;strokeWidth=2;" parent="1" vertex="1">
          <mxGeometry x="212" y="153" width="94" height="33" as="geometry" />
        </mxCell>
        <mxCell id="2eFBXOdf6HQDlg9zkL27-40" value="NewUserRegistration" style="whiteSpace=wrap;strokeWidth=2;" parent="1" vertex="1">
          <mxGeometry x="20" y="255" width="163" height="33" as="geometry" />
        </mxCell>
        <mxCell id="2eFBXOdf6HQDlg9zkL27-41" value="ExistingUserLogin" style="whiteSpace=wrap;strokeWidth=2;" parent="1" vertex="1">
          <mxGeometry x="233" y="255" width="140" height="33" as="geometry" />
        </mxCell>
        <mxCell id="2eFBXOdf6HQDlg9zkL27-42" value="EnterPersonalInfo" style="whiteSpace=wrap;strokeWidth=2;" parent="1" vertex="1">
          <mxGeometry x="31" y="339" width="142" height="33" as="geometry" />
        </mxCell>
        <mxCell id="2eFBXOdf6HQDlg9zkL27-43" value="CreateUsername" style="whiteSpace=wrap;strokeWidth=2;" parent="1" vertex="1">
          <mxGeometry x="35" y="422" width="134" height="33" as="geometry" />
        </mxCell>
        <mxCell id="2eFBXOdf6HQDlg9zkL27-44" value="VerifyEmail" style="whiteSpace=wrap;strokeWidth=2;" parent="1" vertex="1">
          <mxGeometry x="53" y="524" width="97" height="33" as="geometry" />
        </mxCell>
        <mxCell id="2eFBXOdf6HQDlg9zkL27-45" value="EnterCredentials" style="whiteSpace=wrap;strokeWidth=2;" parent="1" vertex="1">
          <mxGeometry x="236" y="339" width="135" height="33" as="geometry" />
        </mxCell>
        <mxCell id="2eFBXOdf6HQDlg9zkL27-46" value="TwoFactorAuth" style="whiteSpace=wrap;strokeWidth=2;" parent="1" vertex="1">
          <mxGeometry x="242" y="422" width="123" height="33" as="geometry" />
        </mxCell>
        <mxCell id="2eFBXOdf6HQDlg9zkL27-47" value="MainDashboard" style="whiteSpace=wrap;strokeWidth=2;" parent="1" vertex="1">
          <mxGeometry x="521" y="510" width="123" height="33" as="geometry" />
        </mxCell>
        <mxCell id="2eFBXOdf6HQDlg9zkL27-48" value="DisplaySavedDocs" style="whiteSpace=wrap;strokeWidth=2;" parent="1" vertex="1">
          <mxGeometry x="260" y="594" width="140" height="33" as="geometry" />
        </mxCell>
        <mxCell id="2eFBXOdf6HQDlg9zkL27-49" value="ShowRecentActivities" style="whiteSpace=wrap;strokeWidth=2;" parent="1" vertex="1">
          <mxGeometry x="450" y="594" width="168" height="33" as="geometry" />
        </mxCell>
        <mxCell id="2eFBXOdf6HQDlg9zkL27-50" value="QuickAccess" style="whiteSpace=wrap;strokeWidth=2;" parent="1" vertex="1">
          <mxGeometry x="668" y="594" width="102" height="33" as="geometry" />
        </mxCell>
        <mxCell id="2eFBXOdf6HQDlg9zkL27-51" value="DocumentUpload" style="whiteSpace=wrap;strokeWidth=2;" parent="1" vertex="1">
          <mxGeometry x="808" y="700" width="137" height="33" as="geometry" />
        </mxCell>
        <mxCell id="2eFBXOdf6HQDlg9zkL27-52" value="SelectUploadMethod" style="whiteSpace=wrap;strokeWidth=2;" parent="1" vertex="1">
          <mxGeometry x="552" y="890" width="162" height="33" as="geometry" />
        </mxCell>
        <mxCell id="2eFBXOdf6HQDlg9zkL27-53" value="CameraCapture" style="whiteSpace=wrap;strokeWidth=2;" parent="1" vertex="1">
          <mxGeometry x="490" y="992" width="127" height="33" as="geometry" />
        </mxCell>
        <mxCell id="2eFBXOdf6HQDlg9zkL27-54" value="FileUpload" style="whiteSpace=wrap;strokeWidth=2;" parent="1" vertex="1">
          <mxGeometry x="667" y="992" width="91" height="33" as="geometry" />
        </mxCell>
        <mxCell id="2eFBXOdf6HQDlg9zkL27-55" value="CloudImport" style="whiteSpace=wrap;strokeWidth=2;" parent="1" vertex="1">
          <mxGeometry x="808" y="992" width="103" height="33" as="geometry" />
        </mxCell>
        <mxCell id="2eFBXOdf6HQDlg9zkL27-56" value="DocumentTypeSelection" style="whiteSpace=wrap;strokeWidth=2;" parent="1" vertex="1">
          <mxGeometry x="1032" y="890" width="186" height="33" as="geometry" />
        </mxCell>
        <mxCell id="2eFBXOdf6HQDlg9zkL27-57" value="TextbookPage" style="whiteSpace=wrap;strokeWidth=2;" parent="1" vertex="1">
          <mxGeometry x="961" y="992" width="114" height="33" as="geometry" />
        </mxCell>
        <mxCell id="2eFBXOdf6HQDlg9zkL27-58" value="HandwrittenNotes" style="whiteSpace=wrap;strokeWidth=2;" parent="1" vertex="1">
          <mxGeometry x="1125" y="992" width="145" height="33" as="geometry" />
        </mxCell>
        <mxCell id="2eFBXOdf6HQDlg9zkL27-59" value="PrintedDocument" style="whiteSpace=wrap;strokeWidth=2;" parent="1" vertex="1">
          <mxGeometry x="1320" y="992" width="139" height="33" as="geometry" />
        </mxCell>
        <mxCell id="2eFBXOdf6HQDlg9zkL27-60" value="OtherDocument" style="whiteSpace=wrap;strokeWidth=2;" parent="1" vertex="1">
          <mxGeometry x="1509" y="992" width="128" height="33" as="geometry" />
        </mxCell>
        <mxCell id="2eFBXOdf6HQDlg9zkL27-61" value="OCRProcessing" style="whiteSpace=wrap;strokeWidth=2;" parent="1" vertex="1">
          <mxGeometry x="1901" y="890" width="119" height="33" as="geometry" />
        </mxCell>
        <mxCell id="2eFBXOdf6HQDlg9zkL27-62" value="ImagePreprocessing" style="whiteSpace=wrap;strokeWidth=2;" parent="1" vertex="1">
          <mxGeometry x="1687" y="992" width="156" height="33" as="geometry" />
        </mxCell>
        <mxCell id="2eFBXOdf6HQDlg9zkL27-63" value="EnhanceImage" style="whiteSpace=wrap;strokeWidth=2;" parent="1" vertex="1">
          <mxGeometry x="1706" y="1094" width="118" height="33" as="geometry" />
        </mxCell>
        <mxCell id="2eFBXOdf6HQDlg9zkL27-64" value="CorrectSkew" style="whiteSpace=wrap;strokeWidth=2;" parent="1" vertex="1">
          <mxGeometry x="1874" y="1094" width="106" height="33" as="geometry" />
        </mxCell>
        <mxCell id="2eFBXOdf6HQDlg9zkL27-65" value="TextRecognition" style="whiteSpace=wrap;strokeWidth=2;" parent="1" vertex="1">
          <mxGeometry x="2016" y="992" width="130" height="33" as="geometry" />
        </mxCell>
        <mxCell id="2eFBXOdf6HQDlg9zkL27-66" value="PerformOCR" style="whiteSpace=wrap;strokeWidth=2;" parent="1" vertex="1">
          <mxGeometry x="2029" y="1094" width="102" height="33" as="geometry" />
        </mxCell>
        <mxCell id="2eFBXOdf6HQDlg9zkL27-67" value="LayoutAnalysis" style="whiteSpace=wrap;strokeWidth=2;" parent="1" vertex="1">
          <mxGeometry x="2286" y="992" width="120" height="33" as="geometry" />
        </mxCell>
        <mxCell id="2eFBXOdf6HQDlg9zkL27-68" value="IdentifyTextBlocks" style="whiteSpace=wrap;strokeWidth=2;" parent="1" vertex="1">
          <mxGeometry x="2182" y="1094" width="146" height="33" as="geometry" />
        </mxCell>
        <mxCell id="2eFBXOdf6HQDlg9zkL27-69" value="IdentifyImages" style="whiteSpace=wrap;strokeWidth=2;" parent="1" vertex="1">
          <mxGeometry x="2378" y="1094" width="120" height="33" as="geometry" />
        </mxCell>
        <mxCell id="2eFBXOdf6HQDlg9zkL27-70" value="IdentifyTables" style="whiteSpace=wrap;strokeWidth=2;" parent="1" vertex="1">
          <mxGeometry x="2548" y="1094" width="115" height="33" as="geometry" />
        </mxCell>
        <mxCell id="2eFBXOdf6HQDlg9zkL27-71" value="TextExtractionResults" style="whiteSpace=wrap;strokeWidth=2;" parent="1" vertex="1">
          <mxGeometry x="2702" y="1210" width="170" height="33" as="geometry" />
        </mxCell>
        <mxCell id="2eFBXOdf6HQDlg9zkL27-72" value="DisplayExtractedText" style="whiteSpace=wrap;strokeWidth=2;" parent="1" vertex="1">
          <mxGeometry x="2383" y="1312" width="166" height="33" as="geometry" />
        </mxCell>
        <mxCell id="2eFBXOdf6HQDlg9zkL27-73" value="NLPProcessing" style="whiteSpace=wrap;strokeWidth=2;" parent="1" vertex="1">
          <mxGeometry x="2598" y="1345" width="116" height="33" as="geometry" />
        </mxCell>
        <mxCell id="2eFBXOdf6HQDlg9zkL27-74" value="ManualEditing" style="whiteSpace=wrap;strokeWidth=2;" parent="1" vertex="1">
          <mxGeometry x="4102" y="1312" width="116" height="33" as="geometry" />
        </mxCell>
        <mxCell id="2eFBXOdf6HQDlg9zkL27-75" value="EditText" style="whiteSpace=wrap;strokeWidth=2;" parent="1" vertex="1">
          <mxGeometry x="4123" y="1395" width="74" height="33" as="geometry" />
        </mxCell>
        <mxCell id="2eFBXOdf6HQDlg9zkL27-76" value="AdjustLayout" style="whiteSpace=wrap;strokeWidth=2;" parent="1" vertex="1">
          <mxGeometry x="4105" y="1478" width="110" height="33" as="geometry" />
        </mxCell>
        <mxCell id="2eFBXOdf6HQDlg9zkL27-77" value="LanguageDetection" style="whiteSpace=wrap;strokeWidth=2;" parent="1" vertex="1">
          <mxGeometry x="2356" y="1446" width="152" height="33" as="geometry" />
        </mxCell>
        <mxCell id="2eFBXOdf6HQDlg9zkL27-78" value="NamedEntityRecognition" style="whiteSpace=wrap;strokeWidth=2;" parent="1" vertex="1">
          <mxGeometry x="2558" y="1446" width="190" height="33" as="geometry" />
        </mxCell>
        <mxCell id="2eFBXOdf6HQDlg9zkL27-79" value="KeyPhraseExtraction" style="whiteSpace=wrap;strokeWidth=2;" parent="1" vertex="1">
          <mxGeometry x="2798" y="1446" width="161" height="33" as="geometry" />
        </mxCell>
        <mxCell id="2eFBXOdf6HQDlg9zkL27-80" value="SentimentAnalysis" style="whiteSpace=wrap;strokeWidth=2;" parent="1" vertex="1">
          <mxGeometry x="3009" y="1446" width="145" height="33" as="geometry" />
        </mxCell>
        <mxCell id="2eFBXOdf6HQDlg9zkL27-81" value="TopicModeling" style="whiteSpace=wrap;strokeWidth=2;" parent="1" vertex="1">
          <mxGeometry x="3204" y="1446" width="117" height="33" as="geometry" />
        </mxCell>
        <mxCell id="2eFBXOdf6HQDlg9zkL27-82" value="ContentOrganization" style="whiteSpace=wrap;strokeWidth=2;" parent="1" vertex="1">
          <mxGeometry x="3371" y="1446" width="163" height="33" as="geometry" />
        </mxCell>
        <mxCell id="2eFBXOdf6HQDlg9zkL27-83" value="CategorizeContent" style="whiteSpace=wrap;strokeWidth=2;" parent="1" vertex="1">
          <mxGeometry x="3196" y="1529" width="149" height="33" as="geometry" />
        </mxCell>
        <mxCell id="2eFBXOdf6HQDlg9zkL27-84" value="CreateHierarchy" style="whiteSpace=wrap;strokeWidth=2;" parent="1" vertex="1">
          <mxGeometry x="3395" y="1529" width="133" height="33" as="geometry" />
        </mxCell>
        <mxCell id="2eFBXOdf6HQDlg9zkL27-85" value="GenerateTags" style="whiteSpace=wrap;strokeWidth=2;" parent="1" vertex="1">
          <mxGeometry x="3578" y="1529" width="112" height="33" as="geometry" />
        </mxCell>
        <mxCell id="2eFBXOdf6HQDlg9zkL27-86" value="LinkConcepts" style="whiteSpace=wrap;strokeWidth=2;" parent="1" vertex="1">
          <mxGeometry x="3740" y="1529" width="110" height="33" as="geometry" />
        </mxCell>
        <mxCell id="2eFBXOdf6HQDlg9zkL27-87" value="UserInteractionHub" style="whiteSpace=wrap;strokeWidth=2;" parent="1" vertex="1">
          <mxGeometry x="3924.75" y="1646" width="154" height="33" as="geometry" />
        </mxCell>
        <mxCell id="2eFBXOdf6HQDlg9zkL27-88" value="AIChatbot" style="whiteSpace=wrap;strokeWidth=2;" parent="1" vertex="1">
          <mxGeometry x="904.75" y="1826" width="87" height="33" as="geometry" />
        </mxCell>
        <mxCell id="2eFBXOdf6HQDlg9zkL27-89" value="UserInputQuestion" style="whiteSpace=wrap;strokeWidth=2;" parent="1" vertex="1">
          <mxGeometry x="390" y="1928" width="147" height="33" as="geometry" />
        </mxCell>
        <mxCell id="2eFBXOdf6HQDlg9zkL27-90" value="SystemProcessesQuery" style="whiteSpace=wrap;strokeWidth=2;" parent="1" vertex="1">
          <mxGeometry x="591.75" y="1928" width="176" height="33" as="geometry" />
        </mxCell>
        <mxCell id="2eFBXOdf6HQDlg9zkL27-91" value="AIGeneratesResponse" style="whiteSpace=wrap;strokeWidth=2;" parent="1" vertex="1">
          <mxGeometry x="818.75" y="1928" width="168" height="33" as="geometry" />
        </mxCell>
        <mxCell id="2eFBXOdf6HQDlg9zkL27-92" value="ReturnToHub" style="whiteSpace=wrap;strokeWidth=2;" parent="1" vertex="1">
          <mxGeometry x="1036.75" y="1928" width="106" height="33" as="geometry" />
        </mxCell>
        <mxCell id="2eFBXOdf6HQDlg9zkL27-93" value="RefineQuestion" style="whiteSpace=wrap;strokeWidth=2;" parent="1" vertex="1">
          <mxGeometry x="1192.75" y="1928" width="123" height="33" as="geometry" />
        </mxCell>
        <mxCell id="2eFBXOdf6HQDlg9zkL27-94" value="GenerateSummary" style="whiteSpace=wrap;strokeWidth=2;" parent="1" vertex="1">
          <mxGeometry x="1794.75" y="1812" width="148" height="33" as="geometry" />
        </mxCell>
        <mxCell id="2eFBXOdf6HQDlg9zkL27-95" value="SelectSummaryLength" style="whiteSpace=wrap;strokeWidth=2;" parent="1" vertex="1">
          <mxGeometry x="1455.75" y="1947" width="173" height="33" as="geometry" />
        </mxCell>
        <mxCell id="2eFBXOdf6HQDlg9zkL27-96" value="SystemCreatesSummary" style="whiteSpace=wrap;strokeWidth=2;" parent="1" vertex="1">
          <mxGeometry x="1678.75" y="1947" width="186" height="33" as="geometry" />
        </mxCell>
        <mxCell id="2eFBXOdf6HQDlg9zkL27-97" value="SaveSummary" style="whiteSpace=wrap;strokeWidth=2;" parent="1" vertex="1">
          <mxGeometry x="1914.75" y="1947" width="114" height="33" as="geometry" />
        </mxCell>
        <mxCell id="2eFBXOdf6HQDlg9zkL27-98" value="AdjustAndRegenerate" style="whiteSpace=wrap;strokeWidth=2;" parent="1" vertex="1">
          <mxGeometry x="2078.75" y="1947" width="170" height="33" as="geometry" />
        </mxCell>
        <mxCell id="2eFBXOdf6HQDlg9zkL27-99" value="TranslateContent" style="whiteSpace=wrap;strokeWidth=2;" parent="1" vertex="1">
          <mxGeometry x="2598" y="1850" width="138" height="33" as="geometry" />
        </mxCell>
        <mxCell id="2eFBXOdf6HQDlg9zkL27-100" value="SelectTargetLanguage" style="whiteSpace=wrap;strokeWidth=2;" parent="1" vertex="1">
          <mxGeometry x="2274.75" y="1942" width="171" height="33" as="geometry" />
        </mxCell>
        <mxCell id="2eFBXOdf6HQDlg9zkL27-101" value="SystemTranslates" style="whiteSpace=wrap;strokeWidth=2;" parent="1" vertex="1">
          <mxGeometry x="2496.75" y="1942" width="137" height="33" as="geometry" />
        </mxCell>
        <mxCell id="2eFBXOdf6HQDlg9zkL27-102" value="SaveTranslation" style="whiteSpace=wrap;strokeWidth=2;" parent="1" vertex="1">
          <mxGeometry x="2683.75" y="1942" width="126" height="33" as="geometry" />
        </mxCell>
        <mxCell id="2eFBXOdf6HQDlg9zkL27-103" value="ReportIssues" style="whiteSpace=wrap;strokeWidth=2;" parent="1" vertex="1">
          <mxGeometry x="2860.75" y="1942" width="104" height="33" as="geometry" />
        </mxCell>
        <mxCell id="2eFBXOdf6HQDlg9zkL27-104" value="TextToSpeech" style="whiteSpace=wrap;strokeWidth=2;" parent="1" vertex="1">
          <mxGeometry x="3272.75" y="1845" width="113" height="33" as="geometry" />
        </mxCell>
        <mxCell id="2eFBXOdf6HQDlg9zkL27-105" value="ChooseVoice" style="whiteSpace=wrap;strokeWidth=2;" parent="1" vertex="1">
          <mxGeometry x="2994.75" y="1939" width="104" height="33" as="geometry" />
        </mxCell>
        <mxCell id="2eFBXOdf6HQDlg9zkL27-106" value="SystemGeneratesAudio" style="whiteSpace=wrap;strokeWidth=2;" parent="1" vertex="1">
          <mxGeometry x="3147.75" y="1939" width="179" height="33" as="geometry" />
        </mxCell>
        <mxCell id="2eFBXOdf6HQDlg9zkL27-107" value="SaveAudio" style="whiteSpace=wrap;strokeWidth=2;" parent="1" vertex="1">
          <mxGeometry x="3377.75" y="1939" width="88" height="33" as="geometry" />
        </mxCell>
        <mxCell id="2eFBXOdf6HQDlg9zkL27-108" value="AdjustSettingsAndRegenerate" style="whiteSpace=wrap;strokeWidth=2;" parent="1" vertex="1">
          <mxGeometry x="3515.75" y="1939" width="227" height="33" as="geometry" />
        </mxCell>
        <mxCell id="2eFBXOdf6HQDlg9zkL27-109" value="FurtherEditing" style="whiteSpace=wrap;strokeWidth=2;" parent="1" vertex="1">
          <mxGeometry x="3838.75" y="1710" width="118" height="33" as="geometry" />
        </mxCell>
        <mxCell id="2eFBXOdf6HQDlg9zkL27-110" value="OpenDocEditor" style="whiteSpace=wrap;strokeWidth=2;" parent="1" vertex="1">
          <mxGeometry x="3836.75" y="1812" width="123" height="33" as="geometry" />
        </mxCell>
        <mxCell id="2eFBXOdf6HQDlg9zkL27-111" value="MakeChanges" style="whiteSpace=wrap;strokeWidth=2;" parent="1" vertex="1">
          <mxGeometry x="3841.75" y="1914" width="111" height="33" as="geometry" />
        </mxCell>
        <mxCell id="2eFBXOdf6HQDlg9zkL27-112" value="SaveEdits" style="whiteSpace=wrap;strokeWidth=2;" parent="1" vertex="1">
          <mxGeometry x="3856.75" y="1997" width="83" height="33" as="geometry" />
        </mxCell>
        <mxCell id="2eFBXOdf6HQDlg9zkL27-113" value="SaveAndStore" style="whiteSpace=wrap;strokeWidth=2;" parent="1" vertex="1">
          <mxGeometry x="4953.75" y="1776" width="112" height="33" as="geometry" />
        </mxCell>
        <mxCell id="2eFBXOdf6HQDlg9zkL27-114" value="UpdateDocLibrary" style="whiteSpace=wrap;strokeWidth=2;" parent="1" vertex="1">
          <mxGeometry x="4063.75" y="1878" width="144" height="33" as="geometry" />
        </mxCell>
        <mxCell id="2eFBXOdf6HQDlg9zkL27-115" value="SyncWithCloud" style="whiteSpace=wrap;strokeWidth=2;" parent="1" vertex="1">
          <mxGeometry x="4258.75" y="1878" width="121" height="33" as="geometry" />
        </mxCell>
        <mxCell id="2eFBXOdf6HQDlg9zkL27-116" value="UpdateSearchIndex" style="whiteSpace=wrap;strokeWidth=2;" parent="1" vertex="1">
          <mxGeometry x="4428.75" y="1878" width="154" height="33" as="geometry" />
        </mxCell>
        <mxCell id="2eFBXOdf6HQDlg9zkL27-117" value="CollaborationFeatures" style="whiteSpace=wrap;strokeWidth=2;" parent="1" vertex="1">
          <mxGeometry x="4632.75" y="1878" width="173" height="33" as="geometry" />
        </mxCell>
        <mxCell id="2eFBXOdf6HQDlg9zkL27-118" value="ShareDocument" style="whiteSpace=wrap;strokeWidth=2;" parent="1" vertex="1">
          <mxGeometry x="4434.75" y="1980" width="127" height="33" as="geometry" />
        </mxCell>
        <mxCell id="2eFBXOdf6HQDlg9zkL27-119" value="SetPermissions" style="whiteSpace=wrap;strokeWidth=2;" parent="1" vertex="1">
          <mxGeometry x="4351.75" y="2063" width="120" height="33" as="geometry" />
        </mxCell>
        <mxCell id="2eFBXOdf6HQDlg9zkL27-120" value="SendInvitations" style="whiteSpace=wrap;strokeWidth=2;" parent="1" vertex="1">
          <mxGeometry x="4521.75" y="2063" width="124" height="33" as="geometry" />
        </mxCell>
        <mxCell id="2eFBXOdf6HQDlg9zkL27-121" value="RealTimeCollab" style="whiteSpace=wrap;strokeWidth=2;" parent="1" vertex="1">
          <mxGeometry x="4835.75" y="1980" width="126" height="33" as="geometry" />
        </mxCell>
        <mxCell id="2eFBXOdf6HQDlg9zkL27-122" value="JoinSharedSession" style="whiteSpace=wrap;strokeWidth=2;" parent="1" vertex="1">
          <mxGeometry x="4695.75" y="2063" width="144" height="33" as="geometry" />
        </mxCell>
        <mxCell id="2eFBXOdf6HQDlg9zkL27-123" value="CollaborativeEdits" style="whiteSpace=wrap;strokeWidth=2;" parent="1" vertex="1">
          <mxGeometry x="4922.75" y="2063" width="145" height="33" as="geometry" />
        </mxCell>
        <mxCell id="2eFBXOdf6HQDlg9zkL27-124" value="AnalyticsAndInsights" style="whiteSpace=wrap;strokeWidth=2;" parent="1" vertex="1">
          <mxGeometry x="5092.75" y="1878" width="161" height="33" as="geometry" />
        </mxCell>
        <mxCell id="2eFBXOdf6HQDlg9zkL27-125" value="GenerateStats" style="whiteSpace=wrap;strokeWidth=2;" parent="1" vertex="1">
          <mxGeometry x="5010.75" y="1980" width="117" height="33" as="geometry" />
        </mxCell>
        <mxCell id="2eFBXOdf6HQDlg9zkL27-126" value="ProvideRecommendations" style="whiteSpace=wrap;strokeWidth=2;" parent="1" vertex="1">
          <mxGeometry x="5177.75" y="1980" width="198" height="33" as="geometry" />
        </mxCell>
        <mxCell id="2eFBXOdf6HQDlg9zkL27-127" value="EndSession" style="whiteSpace=wrap;strokeWidth=2;" parent="1" vertex="1">
          <mxGeometry x="5687.75" y="1878" width="93" height="33" as="geometry" />
        </mxCell>
        <mxCell id="2eFBXOdf6HQDlg9zkL27-128" value="SaveChanges" style="whiteSpace=wrap;strokeWidth=2;" parent="1" vertex="1">
          <mxGeometry x="5425.75" y="1980" width="106" height="33" as="geometry" />
        </mxCell>
        <mxCell id="2eFBXOdf6HQDlg9zkL27-129" value="LogUserActivity" style="whiteSpace=wrap;strokeWidth=2;" parent="1" vertex="1">
          <mxGeometry x="5581.75" y="1980" width="127" height="33" as="geometry" />
        </mxCell>
        <mxCell id="2eFBXOdf6HQDlg9zkL27-130" value="OfferNextSteps" style="whiteSpace=wrap;strokeWidth=2;" parent="1" vertex="1">
          <mxGeometry x="5759.75" y="1980" width="124" height="33" as="geometry" />
        </mxCell>
        <mxCell id="2eFBXOdf6HQDlg9zkL27-131" value="End" style="whiteSpace=wrap;strokeWidth=2;" parent="1" vertex="1">
          <mxGeometry x="5933.75" y="1980" width="41" height="33" as="geometry" />
        </mxCell>
        <mxCell id="2eFBXOdf6HQDlg9zkL27-132" value="" style="curved=1;startArrow=none;endArrow=block;exitX=0.5;exitY=1.01;entryX=0.5;entryY=0.01;rounded=0;" parent="1" source="2eFBXOdf6HQDlg9zkL27-38" target="2eFBXOdf6HQDlg9zkL27-39" edge="1">
          <mxGeometry relative="1" as="geometry">
            <Array as="points" />
          </mxGeometry>
        </mxCell>
        <mxCell id="2eFBXOdf6HQDlg9zkL27-133" value="New User" style="curved=1;startArrow=none;endArrow=block;exitX=0;exitY=0.98;entryX=0.5;entryY=0.01;rounded=0;" parent="1" source="2eFBXOdf6HQDlg9zkL27-39" target="2eFBXOdf6HQDlg9zkL27-40" edge="1">
          <mxGeometry relative="1" as="geometry">
            <Array as="points">
              <mxPoint x="102" y="221" />
            </Array>
          </mxGeometry>
        </mxCell>
        <mxCell id="2eFBXOdf6HQDlg9zkL27-134" value="Existing User" style="curved=1;startArrow=none;endArrow=block;exitX=0.66;exitY=1.02;entryX=0.5;entryY=0.01;rounded=0;" parent="1" source="2eFBXOdf6HQDlg9zkL27-39" target="2eFBXOdf6HQDlg9zkL27-41" edge="1">
          <mxGeometry relative="1" as="geometry">
            <Array as="points">
              <mxPoint x="303" y="221" />
            </Array>
          </mxGeometry>
        </mxCell>
        <mxCell id="2eFBXOdf6HQDlg9zkL27-135" value="" style="curved=1;startArrow=none;endArrow=block;exitX=0.5;exitY=1.02;entryX=0.5;entryY=-0.01;rounded=0;" parent="1" source="2eFBXOdf6HQDlg9zkL27-40" target="2eFBXOdf6HQDlg9zkL27-42" edge="1">
          <mxGeometry relative="1" as="geometry">
            <Array as="points" />
          </mxGeometry>
        </mxCell>
        <mxCell id="2eFBXOdf6HQDlg9zkL27-136" value="" style="curved=1;startArrow=none;endArrow=block;exitX=0.5;exitY=1;entryX=0.5;entryY=0;rounded=0;" parent="1" source="2eFBXOdf6HQDlg9zkL27-42" target="2eFBXOdf6HQDlg9zkL27-43" edge="1">
          <mxGeometry relative="1" as="geometry">
            <Array as="points" />
          </mxGeometry>
        </mxCell>
        <mxCell id="2eFBXOdf6HQDlg9zkL27-137" value="" style="curved=1;startArrow=none;endArrow=block;exitX=0.5;exitY=1.01;entryX=0.5;entryY=-0.01;rounded=0;" parent="1" source="2eFBXOdf6HQDlg9zkL27-43" target="2eFBXOdf6HQDlg9zkL27-44" edge="1">
          <mxGeometry relative="1" as="geometry">
            <Array as="points" />
          </mxGeometry>
        </mxCell>
        <mxCell id="2eFBXOdf6HQDlg9zkL27-138" value="" style="curved=1;startArrow=none;endArrow=block;exitX=0.5;exitY=1.02;entryX=0.5;entryY=-0.01;rounded=0;" parent="1" source="2eFBXOdf6HQDlg9zkL27-41" target="2eFBXOdf6HQDlg9zkL27-45" edge="1">
          <mxGeometry relative="1" as="geometry">
            <Array as="points" />
          </mxGeometry>
        </mxCell>
        <mxCell id="2eFBXOdf6HQDlg9zkL27-139" value="" style="curved=1;startArrow=none;endArrow=block;exitX=0.5;exitY=1;entryX=0.5;entryY=0;rounded=0;" parent="1" source="2eFBXOdf6HQDlg9zkL27-45" target="2eFBXOdf6HQDlg9zkL27-46" edge="1">
          <mxGeometry relative="1" as="geometry">
            <Array as="points" />
          </mxGeometry>
        </mxCell>
        <mxCell id="2eFBXOdf6HQDlg9zkL27-140" value="" style="curved=1;startArrow=none;endArrow=block;exitX=1;exitY=0.67;entryX=0.5;entryY=0.01;rounded=0;" parent="1" source="2eFBXOdf6HQDlg9zkL27-39" target="2eFBXOdf6HQDlg9zkL27-47" edge="1">
          <mxGeometry relative="1" as="geometry">
            <Array as="points">
              <mxPoint x="630" y="160" />
            </Array>
          </mxGeometry>
        </mxCell>
        <mxCell id="2eFBXOdf6HQDlg9zkL27-141" value="" style="curved=1;startArrow=none;endArrow=block;exitX=0;exitY=0.82;entryX=0.5;entryY=-0.01;rounded=0;" parent="1" source="2eFBXOdf6HQDlg9zkL27-47" target="2eFBXOdf6HQDlg9zkL27-48" edge="1">
          <mxGeometry relative="1" as="geometry">
            <Array as="points">
              <mxPoint x="330" y="569" />
            </Array>
          </mxGeometry>
        </mxCell>
        <mxCell id="2eFBXOdf6HQDlg9zkL27-142" value="" style="curved=1;startArrow=none;endArrow=block;exitX=0.34;exitY=1.02;entryX=0.5;entryY=-0.01;rounded=0;" parent="1" source="2eFBXOdf6HQDlg9zkL27-47" target="2eFBXOdf6HQDlg9zkL27-49" edge="1">
          <mxGeometry relative="1" as="geometry">
            <Array as="points">
              <mxPoint x="534" y="569" />
            </Array>
          </mxGeometry>
        </mxCell>
        <mxCell id="2eFBXOdf6HQDlg9zkL27-143" value="" style="curved=1;startArrow=none;endArrow=block;exitX=0.94;exitY=1.02;entryX=0.5;entryY=-0.01;rounded=0;" parent="1" source="2eFBXOdf6HQDlg9zkL27-47" target="2eFBXOdf6HQDlg9zkL27-50" edge="1">
          <mxGeometry relative="1" as="geometry">
            <Array as="points">
              <mxPoint x="719" y="569" />
            </Array>
          </mxGeometry>
        </mxCell>
        <mxCell id="2eFBXOdf6HQDlg9zkL27-144" value="" style="curved=1;startArrow=none;endArrow=block;exitX=1;exitY=0.75;entryX=0.5;entryY=-0.01;rounded=0;" parent="1" source="2eFBXOdf6HQDlg9zkL27-47" target="2eFBXOdf6HQDlg9zkL27-51" edge="1">
          <mxGeometry relative="1" as="geometry">
            <Array as="points">
              <mxPoint x="830" y="569" />
            </Array>
          </mxGeometry>
        </mxCell>
        <mxCell id="2eFBXOdf6HQDlg9zkL27-145" value="" style="curved=1;startArrow=none;endArrow=block;exitX=0;exitY=0.83;entryX=0.5;entryY=0;rounded=0;" parent="1" source="2eFBXOdf6HQDlg9zkL27-51" target="2eFBXOdf6HQDlg9zkL27-52" edge="1">
          <mxGeometry relative="1" as="geometry">
            <Array as="points">
              <mxPoint x="627" y="740" />
            </Array>
          </mxGeometry>
        </mxCell>
        <mxCell id="2eFBXOdf6HQDlg9zkL27-146" value="Camera Capture" style="curved=1;startArrow=none;endArrow=block;exitX=0.34;exitY=1.01;entryX=0.5;entryY=-0.01;rounded=0;" parent="1" source="2eFBXOdf6HQDlg9zkL27-52" target="2eFBXOdf6HQDlg9zkL27-53" edge="1">
          <mxGeometry relative="1" as="geometry">
            <Array as="points">
              <mxPoint x="553" y="958" />
            </Array>
          </mxGeometry>
        </mxCell>
        <mxCell id="2eFBXOdf6HQDlg9zkL27-147" value="File Upload" style="curved=1;startArrow=none;endArrow=block;exitX=0.66;exitY=1.01;entryX=0.5;entryY=-0.01;rounded=0;" parent="1" source="2eFBXOdf6HQDlg9zkL27-52" target="2eFBXOdf6HQDlg9zkL27-54" edge="1">
          <mxGeometry relative="1" as="geometry">
            <Array as="points">
              <mxPoint x="712" y="958" />
            </Array>
          </mxGeometry>
        </mxCell>
        <mxCell id="2eFBXOdf6HQDlg9zkL27-148" value="Cloud Storage Import" style="curved=1;startArrow=none;endArrow=block;exitX=0.96;exitY=1.01;entryX=0.5;entryY=-0.01;rounded=0;" parent="1" source="2eFBXOdf6HQDlg9zkL27-52" target="2eFBXOdf6HQDlg9zkL27-55" edge="1">
          <mxGeometry relative="1" as="geometry">
            <Array as="points">
              <mxPoint x="860" y="958" />
            </Array>
          </mxGeometry>
        </mxCell>
        <mxCell id="2eFBXOdf6HQDlg9zkL27-149" value="" style="curved=1;startArrow=none;endArrow=block;exitX=1;exitY=0.87;entryX=0.5;entryY=0;rounded=0;" parent="1" source="2eFBXOdf6HQDlg9zkL27-51" target="2eFBXOdf6HQDlg9zkL27-56" edge="1">
          <mxGeometry relative="1" as="geometry">
            <Array as="points">
              <mxPoint x="1125" y="760" />
            </Array>
          </mxGeometry>
        </mxCell>
        <mxCell id="2eFBXOdf6HQDlg9zkL27-150" value="Textbook Page" style="curved=1;startArrow=none;endArrow=block;exitX=0.31;exitY=1.01;entryX=0.5;entryY=-0.01;rounded=0;" parent="1" source="2eFBXOdf6HQDlg9zkL27-56" target="2eFBXOdf6HQDlg9zkL27-57" edge="1">
          <mxGeometry relative="1" as="geometry">
            <Array as="points">
              <mxPoint x="1018" y="958" />
            </Array>
          </mxGeometry>
        </mxCell>
        <mxCell id="2eFBXOdf6HQDlg9zkL27-151" value="Handwritten Notes" style="curved=1;startArrow=none;endArrow=block;exitX=0.63;exitY=1.01;entryX=0.5;entryY=-0.01;rounded=0;" parent="1" source="2eFBXOdf6HQDlg9zkL27-56" target="2eFBXOdf6HQDlg9zkL27-58" edge="1">
          <mxGeometry relative="1" as="geometry">
            <Array as="points">
              <mxPoint x="1198" y="958" />
            </Array>
          </mxGeometry>
        </mxCell>
        <mxCell id="2eFBXOdf6HQDlg9zkL27-152" value="Printed Document" style="curved=1;startArrow=none;endArrow=block;exitX=0.97;exitY=1.01;entryX=0.5;entryY=-0.01;rounded=0;" parent="1" source="2eFBXOdf6HQDlg9zkL27-56" target="2eFBXOdf6HQDlg9zkL27-59" edge="1">
          <mxGeometry relative="1" as="geometry">
            <Array as="points">
              <mxPoint x="1389" y="958" />
            </Array>
          </mxGeometry>
        </mxCell>
        <mxCell id="2eFBXOdf6HQDlg9zkL27-153" value="Other" style="curved=1;startArrow=none;endArrow=block;exitX=1;exitY=0.83;entryX=0.5;entryY=-0.01;rounded=0;" parent="1" source="2eFBXOdf6HQDlg9zkL27-56" target="2eFBXOdf6HQDlg9zkL27-60" edge="1">
          <mxGeometry relative="1" as="geometry">
            <Array as="points">
              <mxPoint x="1573" y="958" />
            </Array>
          </mxGeometry>
        </mxCell>
        <mxCell id="2eFBXOdf6HQDlg9zkL27-154" value="" style="curved=1;startArrow=none;endArrow=block;exitX=1;exitY=0.58;entryX=0.5;entryY=0;rounded=0;" parent="1" source="2eFBXOdf6HQDlg9zkL27-51" target="2eFBXOdf6HQDlg9zkL27-61" edge="1">
          <mxGeometry relative="1" as="geometry">
            <Array as="points">
              <mxPoint x="1920" y="680" />
            </Array>
          </mxGeometry>
        </mxCell>
        <mxCell id="2eFBXOdf6HQDlg9zkL27-155" value="" style="curved=1;startArrow=none;endArrow=block;exitX=0;exitY=0.97;entryX=0.5;entryY=-0.01;rounded=0;" parent="1" source="2eFBXOdf6HQDlg9zkL27-61" target="2eFBXOdf6HQDlg9zkL27-62" edge="1">
          <mxGeometry relative="1" as="geometry">
            <Array as="points">
              <mxPoint x="1765" y="958" />
            </Array>
          </mxGeometry>
        </mxCell>
        <mxCell id="2eFBXOdf6HQDlg9zkL27-156" value="" style="curved=1;startArrow=none;endArrow=block;exitX=0.5;exitY=1.01;entryX=0.5;entryY=-0.01;rounded=0;" parent="1" source="2eFBXOdf6HQDlg9zkL27-62" target="2eFBXOdf6HQDlg9zkL27-63" edge="1">
          <mxGeometry relative="1" as="geometry">
            <Array as="points" />
          </mxGeometry>
        </mxCell>
        <mxCell id="2eFBXOdf6HQDlg9zkL27-157" value="" style="curved=1;startArrow=none;endArrow=block;exitX=0.84;exitY=1.01;entryX=0.5;entryY=-0.01;rounded=0;" parent="1" source="2eFBXOdf6HQDlg9zkL27-62" target="2eFBXOdf6HQDlg9zkL27-64" edge="1">
          <mxGeometry relative="1" as="geometry">
            <Array as="points">
              <mxPoint x="1927" y="1059" />
            </Array>
          </mxGeometry>
        </mxCell>
        <mxCell id="2eFBXOdf6HQDlg9zkL27-158" value="" style="curved=1;startArrow=none;endArrow=block;exitX=0.83;exitY=1.01;entryX=0.5;entryY=-0.01;rounded=0;" parent="1" source="2eFBXOdf6HQDlg9zkL27-61" target="2eFBXOdf6HQDlg9zkL27-65" edge="1">
          <mxGeometry relative="1" as="geometry">
            <Array as="points">
              <mxPoint x="2080" y="958" />
            </Array>
          </mxGeometry>
        </mxCell>
        <mxCell id="2eFBXOdf6HQDlg9zkL27-159" value="" style="curved=1;startArrow=none;endArrow=block;exitX=0.5;exitY=1.01;entryX=0.5;entryY=-0.01;rounded=0;" parent="1" source="2eFBXOdf6HQDlg9zkL27-65" target="2eFBXOdf6HQDlg9zkL27-66" edge="1">
          <mxGeometry relative="1" as="geometry">
            <Array as="points" />
          </mxGeometry>
        </mxCell>
        <mxCell id="2eFBXOdf6HQDlg9zkL27-160" value="" style="curved=1;startArrow=none;endArrow=block;exitX=1;exitY=0.74;entryX=0.5;entryY=-0.01;rounded=0;" parent="1" source="2eFBXOdf6HQDlg9zkL27-61" target="2eFBXOdf6HQDlg9zkL27-67" edge="1">
          <mxGeometry relative="1" as="geometry">
            <Array as="points">
              <mxPoint x="2346" y="958" />
            </Array>
          </mxGeometry>
        </mxCell>
        <mxCell id="2eFBXOdf6HQDlg9zkL27-161" value="" style="curved=1;startArrow=none;endArrow=block;exitX=0.25;exitY=1.01;entryX=0.5;entryY=-0.01;rounded=0;" parent="1" source="2eFBXOdf6HQDlg9zkL27-67" target="2eFBXOdf6HQDlg9zkL27-68" edge="1">
          <mxGeometry relative="1" as="geometry">
            <Array as="points">
              <mxPoint x="2255" y="1059" />
            </Array>
          </mxGeometry>
        </mxCell>
        <mxCell id="2eFBXOdf6HQDlg9zkL27-162" value="" style="curved=1;startArrow=none;endArrow=block;exitX=0.75;exitY=1.01;entryX=0.5;entryY=-0.01;rounded=0;" parent="1" source="2eFBXOdf6HQDlg9zkL27-67" target="2eFBXOdf6HQDlg9zkL27-69" edge="1">
          <mxGeometry relative="1" as="geometry">
            <Array as="points">
              <mxPoint x="2438" y="1059" />
            </Array>
          </mxGeometry>
        </mxCell>
        <mxCell id="2eFBXOdf6HQDlg9zkL27-163" value="" style="curved=1;startArrow=none;endArrow=block;exitX=1;exitY=0.86;entryX=0.5;entryY=-0.01;rounded=0;" parent="1" source="2eFBXOdf6HQDlg9zkL27-67" target="2eFBXOdf6HQDlg9zkL27-70" edge="1">
          <mxGeometry relative="1" as="geometry">
            <Array as="points">
              <mxPoint x="2605" y="1059" />
            </Array>
          </mxGeometry>
        </mxCell>
        <mxCell id="2eFBXOdf6HQDlg9zkL27-164" value="" style="curved=1;startArrow=none;endArrow=block;exitX=1;exitY=0.59;entryX=0.5;entryY=-0.01;rounded=0;" parent="1" source="2eFBXOdf6HQDlg9zkL27-61" target="2eFBXOdf6HQDlg9zkL27-71" edge="1">
          <mxGeometry relative="1" as="geometry">
            <Array as="points">
              <mxPoint x="2730" y="880" />
            </Array>
          </mxGeometry>
        </mxCell>
        <mxCell id="2eFBXOdf6HQDlg9zkL27-165" value="" style="curved=1;startArrow=none;endArrow=block;exitX=0;exitY=0.91;entryX=0.5;entryY=-0.01;rounded=0;" parent="1" source="2eFBXOdf6HQDlg9zkL27-71" target="2eFBXOdf6HQDlg9zkL27-72" edge="1">
          <mxGeometry relative="1" as="geometry">
            <Array as="points">
              <mxPoint x="2466" y="1277" />
            </Array>
          </mxGeometry>
        </mxCell>
        <mxCell id="2eFBXOdf6HQDlg9zkL27-166" value="Correct" style="curved=1;startArrow=none;endArrow=block;exitX=0.25;exitY=1.01;entryX=0.5;entryY=-0.01;rounded=0;" parent="1" source="2eFBXOdf6HQDlg9zkL27-71" target="2eFBXOdf6HQDlg9zkL27-73" edge="1">
          <mxGeometry relative="1" as="geometry">
            <Array as="points">
              <mxPoint x="2656" y="1277" />
            </Array>
          </mxGeometry>
        </mxCell>
        <mxCell id="2eFBXOdf6HQDlg9zkL27-167" value="Incorrect" style="curved=1;startArrow=none;endArrow=block;exitX=1;exitY=0.6;entryX=0.5;entryY=-0.01;rounded=0;" parent="1" source="2eFBXOdf6HQDlg9zkL27-71" target="2eFBXOdf6HQDlg9zkL27-74" edge="1">
          <mxGeometry relative="1" as="geometry">
            <Array as="points">
              <mxPoint x="4160" y="1277" />
            </Array>
          </mxGeometry>
        </mxCell>
        <mxCell id="2eFBXOdf6HQDlg9zkL27-168" value="" style="curved=1;startArrow=none;endArrow=block;exitX=0.5;exitY=1;entryX=0.5;entryY=0;rounded=0;" parent="1" source="2eFBXOdf6HQDlg9zkL27-74" target="2eFBXOdf6HQDlg9zkL27-75" edge="1">
          <mxGeometry relative="1" as="geometry">
            <Array as="points" />
          </mxGeometry>
        </mxCell>
        <mxCell id="2eFBXOdf6HQDlg9zkL27-169" value="" style="curved=1;startArrow=none;endArrow=block;exitX=0.5;exitY=1.01;entryX=0.5;entryY=0.01;rounded=0;" parent="1" source="2eFBXOdf6HQDlg9zkL27-75" target="2eFBXOdf6HQDlg9zkL27-76" edge="1">
          <mxGeometry relative="1" as="geometry">
            <Array as="points" />
          </mxGeometry>
        </mxCell>
        <mxCell id="2eFBXOdf6HQDlg9zkL27-170" value="" style="curved=1;startArrow=none;endArrow=block;exitX=0.84;exitY=0.01;entryX=1;entryY=0.59;rounded=0;" parent="1" source="2eFBXOdf6HQDlg9zkL27-76" target="2eFBXOdf6HQDlg9zkL27-71" edge="1">
          <mxGeometry relative="1" as="geometry">
            <Array as="points">
              <mxPoint x="4253" y="1453" />
              <mxPoint x="4253" y="1277" />
              <mxPoint x="4176" y="1246" />
            </Array>
          </mxGeometry>
        </mxCell>
        <mxCell id="2eFBXOdf6HQDlg9zkL27-171" value="" style="curved=1;startArrow=none;endArrow=block;exitX=0;exitY=0.82;entryX=0.5;entryY=0;rounded=0;" parent="1" source="2eFBXOdf6HQDlg9zkL27-73" target="2eFBXOdf6HQDlg9zkL27-77" edge="1">
          <mxGeometry relative="1" as="geometry">
            <Array as="points">
              <mxPoint x="2433" y="1370" />
            </Array>
          </mxGeometry>
        </mxCell>
        <mxCell id="2eFBXOdf6HQDlg9zkL27-172" value="" style="curved=1;startArrow=none;endArrow=block;exitX=0.5;exitY=1;entryX=0.5;entryY=0;rounded=0;" parent="1" source="2eFBXOdf6HQDlg9zkL27-73" target="2eFBXOdf6HQDlg9zkL27-78" edge="1">
          <mxGeometry relative="1" as="geometry">
            <Array as="points">
              <mxPoint x="2654" y="1370" />
            </Array>
          </mxGeometry>
        </mxCell>
        <mxCell id="2eFBXOdf6HQDlg9zkL27-173" value="" style="curved=1;startArrow=none;endArrow=block;exitX=1;exitY=0.82;entryX=0.5;entryY=0;rounded=0;" parent="1" source="2eFBXOdf6HQDlg9zkL27-73" target="2eFBXOdf6HQDlg9zkL27-79" edge="1">
          <mxGeometry relative="1" as="geometry">
            <Array as="points">
              <mxPoint x="2880" y="1370" />
            </Array>
          </mxGeometry>
        </mxCell>
        <mxCell id="2eFBXOdf6HQDlg9zkL27-174" value="" style="curved=1;startArrow=none;endArrow=block;exitX=1;exitY=0.67;entryX=0.5;entryY=0;rounded=0;" parent="1" source="2eFBXOdf6HQDlg9zkL27-73" target="2eFBXOdf6HQDlg9zkL27-80" edge="1">
          <mxGeometry relative="1" as="geometry">
            <Array as="points">
              <mxPoint x="3083" y="1370" />
            </Array>
          </mxGeometry>
        </mxCell>
        <mxCell id="2eFBXOdf6HQDlg9zkL27-175" value="" style="curved=1;startArrow=none;endArrow=block;exitX=1;exitY=0.61;entryX=0.5;entryY=0;rounded=0;" parent="1" source="2eFBXOdf6HQDlg9zkL27-73" target="2eFBXOdf6HQDlg9zkL27-81" edge="1">
          <mxGeometry relative="1" as="geometry">
            <Array as="points">
              <mxPoint x="3264" y="1370" />
            </Array>
          </mxGeometry>
        </mxCell>
        <mxCell id="2eFBXOdf6HQDlg9zkL27-176" value="" style="curved=1;startArrow=none;endArrow=block;exitX=1;exitY=0.59;entryX=0.5;entryY=0;rounded=0;" parent="1" source="2eFBXOdf6HQDlg9zkL27-73" target="2eFBXOdf6HQDlg9zkL27-82" edge="1">
          <mxGeometry relative="1" as="geometry">
            <Array as="points">
              <mxPoint x="3453" y="1370" />
            </Array>
          </mxGeometry>
        </mxCell>
        <mxCell id="2eFBXOdf6HQDlg9zkL27-177" value="" style="curved=1;startArrow=none;endArrow=block;exitX=0.05;exitY=1.01;entryX=0.5;entryY=0.01;rounded=0;" parent="1" source="2eFBXOdf6HQDlg9zkL27-82" target="2eFBXOdf6HQDlg9zkL27-83" edge="1">
          <mxGeometry relative="1" as="geometry">
            <Array as="points">
              <mxPoint x="3271" y="1504" />
            </Array>
          </mxGeometry>
        </mxCell>
        <mxCell id="2eFBXOdf6HQDlg9zkL27-178" value="" style="curved=1;startArrow=none;endArrow=block;exitX=0.52;exitY=1.01;entryX=0.5;entryY=0.01;rounded=0;" parent="1" source="2eFBXOdf6HQDlg9zkL27-82" target="2eFBXOdf6HQDlg9zkL27-84" edge="1">
          <mxGeometry relative="1" as="geometry">
            <Array as="points">
              <mxPoint x="3462" y="1504" />
            </Array>
          </mxGeometry>
        </mxCell>
        <mxCell id="2eFBXOdf6HQDlg9zkL27-179" value="" style="curved=1;startArrow=none;endArrow=block;exitX=0.95;exitY=1.01;entryX=0.5;entryY=0.01;rounded=0;" parent="1" source="2eFBXOdf6HQDlg9zkL27-82" target="2eFBXOdf6HQDlg9zkL27-85" edge="1">
          <mxGeometry relative="1" as="geometry">
            <Array as="points">
              <mxPoint x="3634" y="1504" />
            </Array>
          </mxGeometry>
        </mxCell>
        <mxCell id="2eFBXOdf6HQDlg9zkL27-180" value="" style="curved=1;startArrow=none;endArrow=block;exitX=1;exitY=0.81;entryX=0.5;entryY=0.01;rounded=0;" parent="1" source="2eFBXOdf6HQDlg9zkL27-82" target="2eFBXOdf6HQDlg9zkL27-86" edge="1">
          <mxGeometry relative="1" as="geometry">
            <Array as="points">
              <mxPoint x="3795" y="1504" />
            </Array>
          </mxGeometry>
        </mxCell>
        <mxCell id="2eFBXOdf6HQDlg9zkL27-181" value="" style="curved=1;startArrow=none;endArrow=block;exitX=1;exitY=0.7;entryX=0.5;entryY=0.01;rounded=0;" parent="1" source="2eFBXOdf6HQDlg9zkL27-82" target="2eFBXOdf6HQDlg9zkL27-87" edge="1">
          <mxGeometry relative="1" as="geometry">
            <Array as="points">
              <mxPoint x="4080" y="1440" />
            </Array>
          </mxGeometry>
        </mxCell>
        <mxCell id="2eFBXOdf6HQDlg9zkL27-182" value="Ask Questions" style="curved=1;startArrow=none;endArrow=block;exitX=0;exitY=0.56;entryX=0.5;entryY=0.01;rounded=0;" parent="1" source="2eFBXOdf6HQDlg9zkL27-87" target="2eFBXOdf6HQDlg9zkL27-88" edge="1">
          <mxGeometry relative="1" as="geometry">
            <Array as="points">
              <mxPoint x="1036.75" y="1676" />
            </Array>
          </mxGeometry>
        </mxCell>
        <mxCell id="2eFBXOdf6HQDlg9zkL27-183" value="" style="curved=1;startArrow=none;endArrow=block;exitX=0;exitY=0.65;entryX=0.5;entryY=0;rounded=0;" parent="1" source="2eFBXOdf6HQDlg9zkL27-88" edge="1">
          <mxGeometry relative="1" as="geometry">
            <Array as="points">
              <mxPoint x="468.75" y="1894" />
            </Array>
            <mxPoint x="468.25" y="1928" as="targetPoint" />
          </mxGeometry>
        </mxCell>
        <mxCell id="2eFBXOdf6HQDlg9zkL27-184" value="" style="curved=1;startArrow=none;endArrow=block;exitX=0;exitY=0.76;entryX=0.5;entryY=0;rounded=0;" parent="1" source="2eFBXOdf6HQDlg9zkL27-88" target="2eFBXOdf6HQDlg9zkL27-90" edge="1">
          <mxGeometry relative="1" as="geometry">
            <Array as="points">
              <mxPoint x="679.75" y="1894" />
            </Array>
          </mxGeometry>
        </mxCell>
        <mxCell id="2eFBXOdf6HQDlg9zkL27-185" value="" style="curved=1;startArrow=none;endArrow=block;exitX=0.33;exitY=1.02;entryX=0.5;entryY=0;rounded=0;" parent="1" source="2eFBXOdf6HQDlg9zkL27-88" target="2eFBXOdf6HQDlg9zkL27-91" edge="1">
          <mxGeometry relative="1" as="geometry">
            <Array as="points">
              <mxPoint x="902.75" y="1894" />
            </Array>
          </mxGeometry>
        </mxCell>
        <mxCell id="2eFBXOdf6HQDlg9zkL27-186" value="Satisfactory" style="curved=1;startArrow=none;endArrow=block;exitX=0.99;exitY=0.98;entryX=0.5;entryY=0;rounded=0;" parent="1" source="2eFBXOdf6HQDlg9zkL27-88" target="2eFBXOdf6HQDlg9zkL27-92" edge="1">
          <mxGeometry relative="1" as="geometry">
            <Array as="points">
              <mxPoint x="1089.75" y="1894" />
            </Array>
          </mxGeometry>
        </mxCell>
        <mxCell id="2eFBXOdf6HQDlg9zkL27-187" value="Unsatisfactory" style="curved=1;startArrow=none;endArrow=block;exitX=0.99;exitY=0.73;entryX=0.5;entryY=0;rounded=0;" parent="1" source="2eFBXOdf6HQDlg9zkL27-88" target="2eFBXOdf6HQDlg9zkL27-93" edge="1">
          <mxGeometry relative="1" as="geometry">
            <Array as="points">
              <mxPoint x="1254.75" y="1894" />
            </Array>
          </mxGeometry>
        </mxCell>
        <mxCell id="2eFBXOdf6HQDlg9zkL27-188" value="Generate Summary" style="curved=1;startArrow=none;endArrow=block;exitX=0;exitY=0.57;entryX=0.5;entryY=0.01;rounded=0;" parent="1" source="2eFBXOdf6HQDlg9zkL27-87" target="2eFBXOdf6HQDlg9zkL27-94" edge="1">
          <mxGeometry relative="1" as="geometry">
            <Array as="points">
              <mxPoint x="1871.75" y="1676" />
            </Array>
          </mxGeometry>
        </mxCell>
        <mxCell id="2eFBXOdf6HQDlg9zkL27-189" value="" style="curved=1;startArrow=none;endArrow=block;exitX=0;exitY=0.86;entryX=0.5;entryY=0;rounded=0;" parent="1" source="2eFBXOdf6HQDlg9zkL27-94" target="2eFBXOdf6HQDlg9zkL27-95" edge="1">
          <mxGeometry relative="1" as="geometry">
            <Array as="points">
              <mxPoint x="1541.75" y="1857" />
            </Array>
          </mxGeometry>
        </mxCell>
        <mxCell id="2eFBXOdf6HQDlg9zkL27-190" value="" style="curved=1;startArrow=none;endArrow=block;exitX=0.28;exitY=1.02;entryX=0.5;entryY=0;rounded=0;" parent="1" source="2eFBXOdf6HQDlg9zkL27-94" target="2eFBXOdf6HQDlg9zkL27-96" edge="1">
          <mxGeometry relative="1" as="geometry">
            <Array as="points">
              <mxPoint x="1771.75" y="1857" />
            </Array>
          </mxGeometry>
        </mxCell>
        <mxCell id="2eFBXOdf6HQDlg9zkL27-191" value="Approved" style="curved=1;startArrow=none;endArrow=block;exitX=0.72;exitY=1.02;entryX=0.5;entryY=0;rounded=0;" parent="1" source="2eFBXOdf6HQDlg9zkL27-94" target="2eFBXOdf6HQDlg9zkL27-97" edge="1">
          <mxGeometry relative="1" as="geometry">
            <Array as="points">
              <mxPoint x="1971.75" y="1857" />
            </Array>
          </mxGeometry>
        </mxCell>
        <mxCell id="2eFBXOdf6HQDlg9zkL27-192" value="Not Approved" style="curved=1;startArrow=none;endArrow=block;exitX=1;exitY=0.9;entryX=0.5;entryY=0;rounded=0;" parent="1" source="2eFBXOdf6HQDlg9zkL27-94" target="2eFBXOdf6HQDlg9zkL27-98" edge="1">
          <mxGeometry relative="1" as="geometry">
            <Array as="points">
              <mxPoint x="2163.75" y="1857" />
            </Array>
          </mxGeometry>
        </mxCell>
        <mxCell id="2eFBXOdf6HQDlg9zkL27-193" value="Translate Content" style="curved=1;startArrow=none;endArrow=block;exitX=0;exitY=0.61;entryX=0.5;entryY=0.01;rounded=0;" parent="1" source="2eFBXOdf6HQDlg9zkL27-87" target="2eFBXOdf6HQDlg9zkL27-99" edge="1">
          <mxGeometry relative="1" as="geometry">
            <Array as="points">
              <mxPoint x="2680.75" y="1676" />
            </Array>
          </mxGeometry>
        </mxCell>
        <mxCell id="2eFBXOdf6HQDlg9zkL27-194" value="" style="curved=1;startArrow=none;endArrow=block;exitX=0;exitY=0.87;entryX=0.5;entryY=0;rounded=0;" parent="1" source="2eFBXOdf6HQDlg9zkL27-99" target="2eFBXOdf6HQDlg9zkL27-100" edge="1">
          <mxGeometry relative="1" as="geometry">
            <Array as="points">
              <mxPoint x="2360.75" y="1908" />
            </Array>
          </mxGeometry>
        </mxCell>
        <mxCell id="2eFBXOdf6HQDlg9zkL27-195" value="" style="curved=1;startArrow=none;endArrow=block;exitX=0.29;exitY=1.02;entryX=0.5;entryY=0;rounded=0;" parent="1" source="2eFBXOdf6HQDlg9zkL27-99" target="2eFBXOdf6HQDlg9zkL27-101" edge="1">
          <mxGeometry relative="1" as="geometry">
            <Array as="points">
              <mxPoint x="2565.75" y="1908" />
            </Array>
          </mxGeometry>
        </mxCell>
        <mxCell id="2eFBXOdf6HQDlg9zkL27-196" value="Accurate" style="curved=1;startArrow=none;endArrow=block;exitX=0.72;exitY=1.02;entryX=0.5;entryY=0;rounded=0;" parent="1" source="2eFBXOdf6HQDlg9zkL27-99" target="2eFBXOdf6HQDlg9zkL27-102" edge="1">
          <mxGeometry relative="1" as="geometry">
            <Array as="points">
              <mxPoint x="2747.75" y="1908" />
            </Array>
          </mxGeometry>
        </mxCell>
        <mxCell id="2eFBXOdf6HQDlg9zkL27-197" value="Inaccurate" style="curved=1;startArrow=none;endArrow=block;exitX=1.01;exitY=0.93;entryX=0.5;entryY=0;rounded=0;" parent="1" source="2eFBXOdf6HQDlg9zkL27-99" target="2eFBXOdf6HQDlg9zkL27-103" edge="1">
          <mxGeometry relative="1" as="geometry">
            <Array as="points">
              <mxPoint x="2912.75" y="1908" />
            </Array>
          </mxGeometry>
        </mxCell>
        <mxCell id="2eFBXOdf6HQDlg9zkL27-198" value="Text-to-Speech" style="curved=1;startArrow=none;endArrow=block;exitX=0;exitY=0.71;entryX=0.5;entryY=0.01;rounded=0;" parent="1" source="2eFBXOdf6HQDlg9zkL27-87" target="2eFBXOdf6HQDlg9zkL27-104" edge="1">
          <mxGeometry relative="1" as="geometry">
            <Array as="points">
              <mxPoint x="3373.75" y="1676" />
            </Array>
          </mxGeometry>
        </mxCell>
        <mxCell id="2eFBXOdf6HQDlg9zkL27-199" value="" style="curved=1;startArrow=none;endArrow=block;exitX=0;exitY=0.82;entryX=0.5;entryY=0;rounded=0;" parent="1" source="2eFBXOdf6HQDlg9zkL27-104" target="2eFBXOdf6HQDlg9zkL27-105" edge="1">
          <mxGeometry relative="1" as="geometry">
            <Array as="points">
              <mxPoint x="3046.75" y="1905" />
            </Array>
          </mxGeometry>
        </mxCell>
        <mxCell id="2eFBXOdf6HQDlg9zkL27-200" value="" style="curved=1;startArrow=none;endArrow=block;exitX=0.24;exitY=1.02;entryX=0.5;entryY=0;rounded=0;" parent="1" source="2eFBXOdf6HQDlg9zkL27-104" target="2eFBXOdf6HQDlg9zkL27-106" edge="1">
          <mxGeometry relative="1" as="geometry">
            <Array as="points">
              <mxPoint x="3237.75" y="1905" />
            </Array>
          </mxGeometry>
        </mxCell>
        <mxCell id="2eFBXOdf6HQDlg9zkL27-201" value="Satisfactory" style="curved=1;startArrow=none;endArrow=block;exitX=0.77;exitY=1.02;entryX=0.5;entryY=0;rounded=0;" parent="1" source="2eFBXOdf6HQDlg9zkL27-104" target="2eFBXOdf6HQDlg9zkL27-107" edge="1">
          <mxGeometry relative="1" as="geometry">
            <Array as="points">
              <mxPoint x="3421.75" y="1905" />
            </Array>
          </mxGeometry>
        </mxCell>
        <mxCell id="2eFBXOdf6HQDlg9zkL27-202" value="Not Satisfactory" style="curved=1;startArrow=none;endArrow=block;exitX=1;exitY=0.8;entryX=0.5;entryY=0;rounded=0;" parent="1" source="2eFBXOdf6HQDlg9zkL27-104" target="2eFBXOdf6HQDlg9zkL27-108" edge="1">
          <mxGeometry relative="1" as="geometry">
            <Array as="points">
              <mxPoint x="3628.75" y="1905" />
            </Array>
          </mxGeometry>
        </mxCell>
        <mxCell id="2eFBXOdf6HQDlg9zkL27-203" value="" style="curved=1;startArrow=none;endArrow=block;exitX=0.29;exitY=1.02;entryX=0.5;entryY=0.01;rounded=0;" parent="1" source="2eFBXOdf6HQDlg9zkL27-87" target="2eFBXOdf6HQDlg9zkL27-109" edge="1">
          <mxGeometry relative="1" as="geometry">
            <Array as="points">
              <mxPoint x="3897.75" y="1676" />
            </Array>
          </mxGeometry>
        </mxCell>
        <mxCell id="2eFBXOdf6HQDlg9zkL27-204" value="" style="curved=1;startArrow=none;endArrow=block;exitX=0.5;exitY=1.02;entryX=0.5;entryY=0;rounded=0;" parent="1" source="2eFBXOdf6HQDlg9zkL27-109" target="2eFBXOdf6HQDlg9zkL27-110" edge="1">
          <mxGeometry relative="1" as="geometry">
            <Array as="points" />
          </mxGeometry>
        </mxCell>
        <mxCell id="2eFBXOdf6HQDlg9zkL27-205" value="" style="curved=1;startArrow=none;endArrow=block;exitX=0.5;exitY=1.01;entryX=0.5;entryY=-0.01;rounded=0;" parent="1" source="2eFBXOdf6HQDlg9zkL27-110" target="2eFBXOdf6HQDlg9zkL27-111" edge="1">
          <mxGeometry relative="1" as="geometry">
            <Array as="points" />
          </mxGeometry>
        </mxCell>
        <mxCell id="2eFBXOdf6HQDlg9zkL27-206" value="" style="curved=1;startArrow=none;endArrow=block;exitX=0.5;exitY=1.01;entryX=0.49;entryY=0.01;rounded=0;" parent="1" source="2eFBXOdf6HQDlg9zkL27-111" target="2eFBXOdf6HQDlg9zkL27-112" edge="1">
          <mxGeometry relative="1" as="geometry">
            <Array as="points" />
          </mxGeometry>
        </mxCell>
        <mxCell id="2eFBXOdf6HQDlg9zkL27-207" value="" style="curved=1;startArrow=none;endArrow=block;exitX=1;exitY=0.64;entryX=0.51;entryY=0.01;rounded=0;" parent="1" source="2eFBXOdf6HQDlg9zkL27-87" target="2eFBXOdf6HQDlg9zkL27-113" edge="1">
          <mxGeometry relative="1" as="geometry">
            <Array as="points">
              <mxPoint x="4955.75" y="1676" />
            </Array>
          </mxGeometry>
        </mxCell>
        <mxCell id="2eFBXOdf6HQDlg9zkL27-208" value="" style="curved=1;startArrow=none;endArrow=block;exitX=0;exitY=0.61;entryX=0.5;entryY=0;rounded=0;" parent="1" source="2eFBXOdf6HQDlg9zkL27-113" target="2eFBXOdf6HQDlg9zkL27-114" edge="1">
          <mxGeometry relative="1" as="geometry">
            <Array as="points">
              <mxPoint x="4135.75" y="1844" />
            </Array>
          </mxGeometry>
        </mxCell>
        <mxCell id="2eFBXOdf6HQDlg9zkL27-209" value="" style="curved=1;startArrow=none;endArrow=block;exitX=0;exitY=0.64;entryX=0.5;entryY=0;rounded=0;" parent="1" source="2eFBXOdf6HQDlg9zkL27-113" target="2eFBXOdf6HQDlg9zkL27-115" edge="1">
          <mxGeometry relative="1" as="geometry">
            <Array as="points">
              <mxPoint x="4318.75" y="1844" />
            </Array>
          </mxGeometry>
        </mxCell>
        <mxCell id="2eFBXOdf6HQDlg9zkL27-210" value="" style="curved=1;startArrow=none;endArrow=block;exitX=0;exitY=0.68;entryX=0.5;entryY=0;rounded=0;" parent="1" source="2eFBXOdf6HQDlg9zkL27-113" target="2eFBXOdf6HQDlg9zkL27-116" edge="1">
          <mxGeometry relative="1" as="geometry">
            <Array as="points">
              <mxPoint x="4505.75" y="1844" />
            </Array>
          </mxGeometry>
        </mxCell>
        <mxCell id="2eFBXOdf6HQDlg9zkL27-211" value="" style="curved=1;startArrow=none;endArrow=block;exitX=0;exitY=0.81;entryX=0.5;entryY=0;rounded=0;" parent="1" source="2eFBXOdf6HQDlg9zkL27-113" target="2eFBXOdf6HQDlg9zkL27-117" edge="1">
          <mxGeometry relative="1" as="geometry">
            <Array as="points">
              <mxPoint x="4719.75" y="1844" />
            </Array>
          </mxGeometry>
        </mxCell>
        <mxCell id="2eFBXOdf6HQDlg9zkL27-212" value="Share Document" style="curved=1;startArrow=none;endArrow=block;exitX=0.08;exitY=1.01;entryX=0.5;entryY=-0.01;rounded=0;" parent="1" source="2eFBXOdf6HQDlg9zkL27-117" target="2eFBXOdf6HQDlg9zkL27-118" edge="1">
          <mxGeometry relative="1" as="geometry">
            <Array as="points">
              <mxPoint x="4497.75" y="1946" />
            </Array>
          </mxGeometry>
        </mxCell>
        <mxCell id="2eFBXOdf6HQDlg9zkL27-213" value="" style="curved=1;startArrow=none;endArrow=block;exitX=0.23;exitY=1.01;entryX=0.5;entryY=0.01;rounded=0;" parent="1" source="2eFBXOdf6HQDlg9zkL27-118" target="2eFBXOdf6HQDlg9zkL27-119" edge="1">
          <mxGeometry relative="1" as="geometry">
            <Array as="points">
              <mxPoint x="4411.75" y="2038" />
            </Array>
          </mxGeometry>
        </mxCell>
        <mxCell id="2eFBXOdf6HQDlg9zkL27-214" value="" style="curved=1;startArrow=none;endArrow=block;exitX=0.77;exitY=1.01;entryX=0.5;entryY=0.01;rounded=0;" parent="1" source="2eFBXOdf6HQDlg9zkL27-118" target="2eFBXOdf6HQDlg9zkL27-120" edge="1">
          <mxGeometry relative="1" as="geometry">
            <Array as="points">
              <mxPoint x="4583.75" y="2038" />
            </Array>
          </mxGeometry>
        </mxCell>
        <mxCell id="2eFBXOdf6HQDlg9zkL27-215" value="Real-time Collaboration" style="curved=1;startArrow=none;endArrow=block;exitX=0.84;exitY=1.01;entryX=0.49;entryY=-0.01;rounded=0;" parent="1" source="2eFBXOdf6HQDlg9zkL27-117" target="2eFBXOdf6HQDlg9zkL27-121" edge="1">
          <mxGeometry relative="1" as="geometry">
            <Array as="points">
              <mxPoint x="4897.75" y="1946" />
            </Array>
          </mxGeometry>
        </mxCell>
        <mxCell id="2eFBXOdf6HQDlg9zkL27-216" value="" style="curved=1;startArrow=none;endArrow=block;exitX=0.08;exitY=1.01;entryX=0.5;entryY=0.01;rounded=0;" parent="1" source="2eFBXOdf6HQDlg9zkL27-121" target="2eFBXOdf6HQDlg9zkL27-122" edge="1">
          <mxGeometry relative="1" as="geometry">
            <Array as="points">
              <mxPoint x="4768.75" y="2038" />
            </Array>
          </mxGeometry>
        </mxCell>
        <mxCell id="2eFBXOdf6HQDlg9zkL27-217" value="" style="curved=1;startArrow=none;endArrow=block;exitX=0.8;exitY=1.01;entryX=0.5;entryY=0.01;rounded=0;" parent="1" source="2eFBXOdf6HQDlg9zkL27-121" target="2eFBXOdf6HQDlg9zkL27-123" edge="1">
          <mxGeometry relative="1" as="geometry">
            <Array as="points">
              <mxPoint x="4995.75" y="2038" />
            </Array>
          </mxGeometry>
        </mxCell>
        <mxCell id="2eFBXOdf6HQDlg9zkL27-218" value="" style="curved=1;startArrow=none;endArrow=block;exitX=0.98;exitY=1.02;entryX=0.5;entryY=0;rounded=0;" parent="1" source="2eFBXOdf6HQDlg9zkL27-113" target="2eFBXOdf6HQDlg9zkL27-124" edge="1">
          <mxGeometry relative="1" as="geometry">
            <Array as="points">
              <mxPoint x="5172.75" y="1844" />
            </Array>
          </mxGeometry>
        </mxCell>
        <mxCell id="2eFBXOdf6HQDlg9zkL27-219" value="" style="curved=1;startArrow=none;endArrow=block;exitX=0.29;exitY=1.01;entryX=0.5;entryY=-0.01;rounded=0;" parent="1" source="2eFBXOdf6HQDlg9zkL27-124" target="2eFBXOdf6HQDlg9zkL27-125" edge="1">
          <mxGeometry relative="1" as="geometry">
            <Array as="points">
              <mxPoint x="5069.75" y="1946" />
            </Array>
          </mxGeometry>
        </mxCell>
        <mxCell id="2eFBXOdf6HQDlg9zkL27-220" value="" style="curved=1;startArrow=none;endArrow=block;exitX=0.71;exitY=1.01;entryX=0.5;entryY=-0.01;rounded=0;" parent="1" source="2eFBXOdf6HQDlg9zkL27-124" target="2eFBXOdf6HQDlg9zkL27-126" edge="1">
          <mxGeometry relative="1" as="geometry">
            <Array as="points">
              <mxPoint x="5276.75" y="1946" />
            </Array>
          </mxGeometry>
        </mxCell>
        <mxCell id="2eFBXOdf6HQDlg9zkL27-221" value="" style="curved=1;startArrow=none;endArrow=block;exitX=1.01;exitY=0.63;entryX=0.49;entryY=0;rounded=0;" parent="1" source="2eFBXOdf6HQDlg9zkL27-113" target="2eFBXOdf6HQDlg9zkL27-127" edge="1">
          <mxGeometry relative="1" as="geometry">
            <Array as="points">
              <mxPoint x="5733.75" y="1844" />
            </Array>
          </mxGeometry>
        </mxCell>
        <mxCell id="2eFBXOdf6HQDlg9zkL27-222" value="" style="curved=1;startArrow=none;endArrow=block;exitX=0;exitY=0.79;entryX=0.5;entryY=-0.01;rounded=0;" parent="1" source="2eFBXOdf6HQDlg9zkL27-127" target="2eFBXOdf6HQDlg9zkL27-128" edge="1">
          <mxGeometry relative="1" as="geometry">
            <Array as="points">
              <mxPoint x="5478.75" y="1946" />
            </Array>
          </mxGeometry>
        </mxCell>
        <mxCell id="2eFBXOdf6HQDlg9zkL27-223" value="" style="curved=1;startArrow=none;endArrow=block;exitX=0.18;exitY=1.01;entryX=0.5;entryY=-0.01;rounded=0;" parent="1" source="2eFBXOdf6HQDlg9zkL27-127" target="2eFBXOdf6HQDlg9zkL27-129" edge="1">
          <mxGeometry relative="1" as="geometry">
            <Array as="points">
              <mxPoint x="5645.75" y="1946" />
            </Array>
          </mxGeometry>
        </mxCell>
        <mxCell id="2eFBXOdf6HQDlg9zkL27-224" value="" style="curved=1;startArrow=none;endArrow=block;exitX=0.8;exitY=1.01;entryX=0.5;entryY=-0.01;rounded=0;" parent="1" source="2eFBXOdf6HQDlg9zkL27-127" target="2eFBXOdf6HQDlg9zkL27-130" edge="1">
          <mxGeometry relative="1" as="geometry">
            <Array as="points">
              <mxPoint x="5821.75" y="1946" />
            </Array>
          </mxGeometry>
        </mxCell>
        <mxCell id="2eFBXOdf6HQDlg9zkL27-225" value="" style="curved=1;startArrow=none;endArrow=block;exitX=0.99;exitY=0.83;entryX=0.5;entryY=-0.01;rounded=0;" parent="1" source="2eFBXOdf6HQDlg9zkL27-127" target="2eFBXOdf6HQDlg9zkL27-131" edge="1">
          <mxGeometry relative="1" as="geometry">
            <Array as="points">
              <mxPoint x="5953.75" y="1946" />
            </Array>
          </mxGeometry>
        </mxCell>
      </root>
    </mxGraphModel>
  </diagram>
</mxfile>
